P2
4 4 
15
0 7 8 0
1 0 15 0
2 1 1 2
0 0 0 0