P3
3 3
255
76 76 76	150 150 150	28 28 28	
255 255 255	127 127 127	0 0 0	
104 104 104	226 226 226	178 178 178	

